<svg width="30.000000" height="30.000000" viewBox="0 0 30 30" fill="none" xmlns="http://www.w3.org/2000/svg" xmlns:xlink="http://www.w3.org/1999/xlink">
	<desc>
			Created with Pixso.
	</desc>
	<defs/>
	<mask id="mask2_315" mask-type="alpha" maskUnits="userSpaceOnUse" x="0.000000" y="0.000000" width="30.000000" height="30.000000">
		<path id="Clip 2" d="M15 0L30 0L30 30L15 30L0 30L0 0L15 0Z" fill="#E95B5A" fill-opacity="1.000000" fill-rule="evenodd"/>
	</mask>
	<g mask="url(#mask2_315)">
		<path id="Fill 1" d="M0 10.0596L0 19.9404C0.0230103 20.2521 0.0548706 20.5632 0.067688 20.8752C0.125793 22.2979 0.29187 23.7017 0.863037 25.0227C1.9165 27.459 3.77515 28.9403 6.32953 29.5813C7.46173 29.8654 8.61914 29.9178 9.7785 29.9521C9.87256 29.955 9.96588 29.9834 10.0595 30L19.9404 30C20.252 29.9769 20.5632 29.9452 20.8752 29.9324C22.2977 29.8738 23.7015 29.7083 25.0226 29.137C27.4589 28.0834 28.9404 26.2249 29.5812 23.6705C29.8653 22.5383 29.9178 21.3809 29.9521 20.2216C29.955 20.1274 29.9835 20.0342 30 19.9404L30 10.0596C29.9769 9.74792 29.9451 9.43677 29.9323 9.12476C29.8738 7.70227 29.7081 6.29846 29.137 4.97742C28.0834 2.54114 26.2249 1.05981 23.6705 0.418701C22.5383 0.134521 21.3808 0.0823975 20.2214 0.0478516C20.1274 0.0450439 20.0341 0.0166016 19.9404 0L10.0595 0C9.74799 0.0230713 9.43677 0.0549316 9.12476 0.067627C7.70215 0.125854 6.2984 0.29187 4.97729 0.863159C2.54108 1.9165 1.05969 3.77515 0.418701 6.32947C0.134521 7.46167 0.0823364 8.61914 0.0477905 9.77856C0.0449829 9.87256 0.0164795 9.96582 0 10.0596ZM27.3177 14.9984C27.3024 14.9983 27.287 14.9982 27.2716 14.9979C27.2716 14.6183 27.2739 14.2385 27.2761 13.8588C27.2812 12.989 27.2864 12.1191 27.2645 11.25C27.2349 10.0721 27.1906 8.89124 27.071 7.71997C26.9567 6.59961 26.562 5.56714 25.8057 4.69629C24.7476 3.47791 23.351 2.9646 21.8047 2.87012C20.045 2.76282 18.2793 2.73633 16.5157 2.71484C14.7607 2.69348 13.0047 2.70056 11.2499 2.73584C10.0721 2.7594 8.89124 2.80945 7.71997 2.92896C6.59961 3.04321 5.56708 3.43811 4.69623 4.19434C3.47784 5.25244 2.96454 6.64905 2.87018 8.19531C2.76276 9.95508 2.73633 11.7207 2.71484 13.4843C2.69342 15.2393 2.70062 16.9954 2.73578 18.75C2.7594 19.9279 2.80945 21.1088 2.92896 22.28C3.04327 23.4004 3.43799 24.4329 4.19434 25.3038C5.25244 26.5221 6.64905 27.0354 8.19525 27.1298C9.95502 27.2372 11.7207 27.2637 13.4843 27.2852C15.2393 27.3065 16.9956 27.3071 18.7499 27.262C20.0455 27.2288 21.3539 27.204 22.6296 27.0037C24.8099 26.6614 26.2853 25.3972 26.8723 23.2332C27.0625 22.532 27.1621 21.7909 27.1891 21.0638C27.264 19.0432 27.2791 17.0204 27.3177 14.9984Z" clip-rule="evenodd" fill="#E43071" fill-opacity="1.000000" fill-rule="evenodd"/>
	</g>
	<path id="Fill 4" d="M14.9786 22.7089C19.2516 22.715 22.707 19.272 22.7087 15.0067C22.7103 10.7495 19.2717 7.29858 15.0213 7.2915C10.7493 7.28442 7.29431 10.7269 7.29126 14.9937C7.28827 19.2491 10.7294 22.7028 14.9786 22.7089ZM14.9958 19.9902C17.726 19.9904 19.9874 17.7562 19.9901 15.0564C19.9927 12.2751 17.7768 10.0122 15.0487 10.0101C12.2573 10.0081 10.0103 12.228 10.0099 14.9885C10.0096 17.7488 12.2438 19.9901 14.9958 19.9902Z" clip-rule="evenodd" fill="#E43071" fill-opacity="1.000000" fill-rule="evenodd"/>
	<path id="Fill 6" d="M22.99 5.18C23.99 5.18 24.8 5.98 24.81 6.98C24.81 7.99 24 8.8 23 8.8C22.01 8.8 21.18 7.98 21.19 6.98C21.19 6 22 5.19 22.99 5.18Z" fill="#E43071" fill-opacity="1.000000" fill-rule="evenodd"/>
</svg>
